# xmcd
#
# Track frame offsets: 
#        150
#        33405
#        65280
#        95872
#        114112
#        134670
#        164437
#        187417
#        200717
#        217902
#        240267
#        264777
#
# Disc length: 3896 seconds
#
# Revision: 1
# Processed by: cddbd v1.5.2PL0 Copyright (c) Steve Scherf et al.
# Submitted via: ExactAudioCopy v0.99pb3
#
DISCID=ac0f360c
DTITLE=Magic Slim and The Teardrops - Vol. 1 - Born On A Bad Sign
DYEAR=1994
DGENRE=Blues
TTITLE0=Going Down Slow
TTITLE1=Born On A Bad Sign
TTITLE2=Born In Missouri
TTITLE3=Slim's Bump
TTITLE4=Buddy Buddy Friend
TTITLE5=Born Down The Bridge
TTITLE6=Rock Me Baby
TTITLE7=Tell Me Baby
TTITLE8=You Upset Me Baby
TTITLE9=Jumpin' At Ma Bea's
TTITLE10=I Don't Got Over
TTITLE11=Tramp
EXTD=
EXTT0=
EXTT1=
EXTT2=
EXTT3=
EXTT4=
EXTT5=
EXTT6=
EXTT7=
EXTT8=
EXTT9=
EXTT10=
EXTT11=
PLAYORDER=
